<?xml version="1.0" standalone="no"?>
<!DOCTYPE svg PUBLIC "-//W3C//DTD SVG 20010904//EN"
 "http://www.w3.org/TR/2001/REC-SVG-20010904/DTD/svg10.dtd">
<svg version="1.0" xmlns="http://www.w3.org/2000/svg"
 width="789.000000pt" height="891.000000pt" viewBox="0 0 789.000000 891.000000"
 preserveAspectRatio="xMidYMid meet">

<g transform="translate(0.000000,891.000000) scale(0.100000,-0.100000)"
fill="#000000" stroke="none">
<path d="M3935 8871 c-16 -10 -118 -69 -225 -131 -107 -63 -319 -187 -470
-276 -151 -89 -293 -172 -315 -184 -22 -12 -76 -44 -120 -70 -91 -54 -499
-294 -945 -555 -168 -98 -429 -251 -580 -340 -151 -89 -386 -226 -522 -306
-136 -79 -248 -146 -247 -149 0 -3 23 -19 52 -36 29 -17 138 -83 242 -146 105
-63 289 -175 410 -248 121 -74 282 -171 358 -217 75 -46 200 -121 277 -169
l140 -85 54 30 c30 16 121 69 203 117 238 141 581 342 678 399 90 52 369 216
605 355 69 40 172 101 230 135 58 34 211 123 340 199 129 76 251 147 270 158
19 11 109 64 200 118 222 130 727 427 819 480 61 35 71 44 60 55 -13 12 -247
153 -1160 701 -169 101 -311 184 -315 184 -5 0 -22 -9 -39 -19z"/>
<path d="M5924 7676 c-142 -83 -1104 -653 -1554 -921 -85 -51 -355 -210 -600
-355 -422 -249 -879 -520 -1127 -668 -62 -37 -113 -70 -113 -74 0 -3 51 -36
113 -73 61 -36 164 -97 227 -136 63 -39 214 -130 335 -203 121 -73 340 -206
487 -295 l267 -162 83 47 c46 26 112 66 146 91 35 24 89 57 120 74 93 49 196
109 202 117 3 4 19 14 35 22 17 8 37 20 45 26 8 7 38 24 65 39 28 15 66 37 85
49 73 47 142 86 149 86 4 0 32 17 62 38 30 21 99 64 154 96 55 31 107 61 115
66 8 5 150 88 315 186 165 97 320 189 345 204 25 15 214 128 420 250 1218 723
1081 638 1065 663 -8 12 -310 200 -671 417 -362 217 -674 405 -694 417 l-36
22 -40 -23z"/>
<path d="M0 5111 l0 -829 48 -25 c26 -14 118 -68 205 -121 87 -53 160 -96 162
-96 2 0 63 -37 137 -81 73 -45 174 -105 223 -134 50 -29 164 -97 255 -152 91
-54 311 -186 490 -293 179 -106 460 -274 625 -373 165 -99 309 -185 320 -191
34 -19 867 -517 908 -543 21 -13 42 -21 47 -18 6 4 9 325 7 827 l-2 822 -245
146 c-135 81 -492 294 -795 475 -704 420 -876 523 -1227 733 -158 94 -301 180
-317 189 -103 60 -633 377 -718 429 -57 35 -107 64 -113 64 -7 0 -10 -274 -10
-829z"/>
<path d="M7770 5831 c-125 -76 -388 -230 -630 -371 -286 -166 -598 -349 -652
-383 l-48 -29 0 -1929 c0 -1061 2 -1929 5 -1929 2 0 91 51 197 113 106 62 342
200 523 307 182 106 350 205 375 221 25 15 68 40 96 56 27 15 96 55 152 88
l102 60 0 1927 c0 1536 -3 1928 -12 1927 -7 0 -56 -26 -108 -58z"/>
<path d="M5685 4619 c-115 -71 -216 -132 -223 -136 -7 -3 -97 -56 -200 -119
-103 -62 -316 -190 -474 -284 -159 -95 -288 -178 -287 -184 0 -6 -2 -874 -5
-1929 -3 -1054 -2 -1917 2 -1917 7 0 230 129 517 299 44 26 217 128 385 226
168 98 351 206 408 239 l102 61 0 1935 c0 1064 -3 1936 -7 1937 -5 0 -102 -57
-218 -128z"/>
<path d="M0 2877 l0 -813 103 -60 c56 -34 478 -287 937 -564 459 -276 1080
-650 1380 -830 300 -181 646 -389 770 -463 123 -75 228 -133 232 -131 4 3 8
362 8 799 l0 794 -27 19 c-30 21 -71 46 -518 317 -165 100 -428 260 -585 355
-157 95 -379 230 -495 300 -115 70 -327 198 -470 285 -283 172 -739 448 -1099
666 -126 77 -231 139 -232 139 -2 0 -4 -366 -4 -813z"/>
</g>
</svg>
